#VRML V2.0 utf8
# Conceptual geometry, millimetres converted to KiCad VRML units.
Transform { translation 0.0 0.11811023622047244 0.39370078740157477 children [ Shape { appearance Appearance { material Material { diffuseColor 0.84 0.81 0.68 } } geometry Box { size 14.37007874015748 2.0078740157480315 0.7874015748031495 } } ] }
Transform { translation 0.0 -0.7480314960629921 0.47244094488188976 children [ Shape { appearance Appearance { material Material { diffuseColor 0.16 0.17 0.18 } } geometry Box { size 13.976377952755906 0.47244094488188976 0.6299212598425197 } } ] }
Transform { translation -5.807086614173229 1.1811023622047243 0.05905511811023622 children [ Shape { appearance Appearance { material Material { diffuseColor 0.73 0.57 0.22 } } geometry Box { size 0.11811023622047244 0.39370078740157477 0.11811023622047244 } } ] }
Transform { translation -5.610236220472441 1.1811023622047243 0.05905511811023622 children [ Shape { appearance Appearance { material Material { diffuseColor 0.73 0.57 0.22 } } geometry Box { size 0.11811023622047244 0.39370078740157477 0.11811023622047244 } } ] }
Transform { translation -5.413385826771654 1.1811023622047243 0.05905511811023622 children [ Shape { appearance Appearance { material Material { diffuseColor 0.73 0.57 0.22 } } geometry Box { size 0.11811023622047244 0.39370078740157477 0.11811023622047244 } } ] }
Transform { translation -5.216535433070866 1.1811023622047243 0.05905511811023622 children [ Shape { appearance Appearance { material Material { diffuseColor 0.73 0.57 0.22 } } geometry Box { size 0.11811023622047244 0.39370078740157477 0.11811023622047244 } } ] }
Transform { translation -5.019685039370079 1.1811023622047243 0.05905511811023622 children [ Shape { appearance Appearance { material Material { diffuseColor 0.73 0.57 0.22 } } geometry Box { size 0.11811023622047244 0.39370078740157477 0.11811023622047244 } } ] }
Transform { translation -4.822834645669292 1.1811023622047243 0.05905511811023622 children [ Shape { appearance Appearance { material Material { diffuseColor 0.73 0.57 0.22 } } geometry Box { size 0.11811023622047244 0.39370078740157477 0.11811023622047244 } } ] }
Transform { translation -4.625984251968504 1.1811023622047243 0.05905511811023622 children [ Shape { appearance Appearance { material Material { diffuseColor 0.73 0.57 0.22 } } geometry Box { size 0.11811023622047244 0.39370078740157477 0.11811023622047244 } } ] }
Transform { translation -4.429133858267717 1.1811023622047243 0.05905511811023622 children [ Shape { appearance Appearance { material Material { diffuseColor 0.73 0.57 0.22 } } geometry Box { size 0.11811023622047244 0.39370078740157477 0.11811023622047244 } } ] }
Transform { translation -4.232283464566929 1.1811023622047243 0.05905511811023622 children [ Shape { appearance Appearance { material Material { diffuseColor 0.73 0.57 0.22 } } geometry Box { size 0.11811023622047244 0.39370078740157477 0.11811023622047244 } } ] }
Transform { translation -4.035433070866142 1.1811023622047243 0.05905511811023622 children [ Shape { appearance Appearance { material Material { diffuseColor 0.73 0.57 0.22 } } geometry Box { size 0.11811023622047244 0.39370078740157477 0.11811023622047244 } } ] }
Transform { translation -3.838582677165354 1.1811023622047243 0.05905511811023622 children [ Shape { appearance Appearance { material Material { diffuseColor 0.73 0.57 0.22 } } geometry Box { size 0.11811023622047244 0.39370078740157477 0.11811023622047244 } } ] }
Transform { translation -3.6417322834645667 1.1811023622047243 0.05905511811023622 children [ Shape { appearance Appearance { material Material { diffuseColor 0.73 0.57 0.22 } } geometry Box { size 0.11811023622047244 0.39370078740157477 0.11811023622047244 } } ] }
Transform { translation -3.4448818897637796 1.1811023622047243 0.05905511811023622 children [ Shape { appearance Appearance { material Material { diffuseColor 0.73 0.57 0.22 } } geometry Box { size 0.11811023622047244 0.39370078740157477 0.11811023622047244 } } ] }
Transform { translation -3.248031496062992 1.1811023622047243 0.05905511811023622 children [ Shape { appearance Appearance { material Material { diffuseColor 0.73 0.57 0.22 } } geometry Box { size 0.11811023622047244 0.39370078740157477 0.11811023622047244 } } ] }
Transform { translation -3.0511811023622046 1.1811023622047243 0.05905511811023622 children [ Shape { appearance Appearance { material Material { diffuseColor 0.73 0.57 0.22 } } geometry Box { size 0.11811023622047244 0.39370078740157477 0.11811023622047244 } } ] }
Transform { translation -2.854330708661417 1.1811023622047243 0.05905511811023622 children [ Shape { appearance Appearance { material Material { diffuseColor 0.73 0.57 0.22 } } geometry Box { size 0.11811023622047244 0.39370078740157477 0.11811023622047244 } } ] }
Transform { translation -2.65748031496063 1.1811023622047243 0.05905511811023622 children [ Shape { appearance Appearance { material Material { diffuseColor 0.73 0.57 0.22 } } geometry Box { size 0.11811023622047244 0.39370078740157477 0.11811023622047244 } } ] }
Transform { translation -2.4606299212598426 1.1811023622047243 0.05905511811023622 children [ Shape { appearance Appearance { material Material { diffuseColor 0.73 0.57 0.22 } } geometry Box { size 0.11811023622047244 0.39370078740157477 0.11811023622047244 } } ] }
Transform { translation -2.263779527559055 1.1811023622047243 0.05905511811023622 children [ Shape { appearance Appearance { material Material { diffuseColor 0.73 0.57 0.22 } } geometry Box { size 0.11811023622047244 0.39370078740157477 0.11811023622047244 } } ] }
Transform { translation -2.0669291338582676 1.1811023622047243 0.05905511811023622 children [ Shape { appearance Appearance { material Material { diffuseColor 0.73 0.57 0.22 } } geometry Box { size 0.11811023622047244 0.39370078740157477 0.11811023622047244 } } ] }
Transform { translation -1.8700787401574803 1.1811023622047243 0.05905511811023622 children [ Shape { appearance Appearance { material Material { diffuseColor 0.73 0.57 0.22 } } geometry Box { size 0.11811023622047244 0.39370078740157477 0.11811023622047244 } } ] }
Transform { translation -1.6732283464566928 1.1811023622047243 0.05905511811023622 children [ Shape { appearance Appearance { material Material { diffuseColor 0.73 0.57 0.22 } } geometry Box { size 0.11811023622047244 0.39370078740157477 0.11811023622047244 } } ] }
Transform { translation -1.4763779527559056 1.1811023622047243 0.05905511811023622 children [ Shape { appearance Appearance { material Material { diffuseColor 0.73 0.57 0.22 } } geometry Box { size 0.11811023622047244 0.39370078740157477 0.11811023622047244 } } ] }
Transform { translation -1.279527559055118 1.1811023622047243 0.05905511811023622 children [ Shape { appearance Appearance { material Material { diffuseColor 0.73 0.57 0.22 } } geometry Box { size 0.11811023622047244 0.39370078740157477 0.11811023622047244 } } ] }
Transform { translation -1.0826771653543308 1.1811023622047243 0.05905511811023622 children [ Shape { appearance Appearance { material Material { diffuseColor 0.73 0.57 0.22 } } geometry Box { size 0.11811023622047244 0.39370078740157477 0.11811023622047244 } } ] }
Transform { translation -0.8858267716535433 1.1811023622047243 0.05905511811023622 children [ Shape { appearance Appearance { material Material { diffuseColor 0.73 0.57 0.22 } } geometry Box { size 0.11811023622047244 0.39370078740157477 0.11811023622047244 } } ] }
Transform { translation -0.6889763779527559 1.1811023622047243 0.05905511811023622 children [ Shape { appearance Appearance { material Material { diffuseColor 0.73 0.57 0.22 } } geometry Box { size 0.11811023622047244 0.39370078740157477 0.11811023622047244 } } ] }
Transform { translation -0.4921259842519685 1.1811023622047243 0.05905511811023622 children [ Shape { appearance Appearance { material Material { diffuseColor 0.73 0.57 0.22 } } geometry Box { size 0.11811023622047244 0.39370078740157477 0.11811023622047244 } } ] }
Transform { translation -0.2952755905511811 1.1811023622047243 0.05905511811023622 children [ Shape { appearance Appearance { material Material { diffuseColor 0.73 0.57 0.22 } } geometry Box { size 0.11811023622047244 0.39370078740157477 0.11811023622047244 } } ] }
Transform { translation -0.09842519685039369 1.1811023622047243 0.05905511811023622 children [ Shape { appearance Appearance { material Material { diffuseColor 0.73 0.57 0.22 } } geometry Box { size 0.11811023622047244 0.39370078740157477 0.11811023622047244 } } ] }
Transform { translation 0.09842519685039369 1.1811023622047243 0.05905511811023622 children [ Shape { appearance Appearance { material Material { diffuseColor 0.73 0.57 0.22 } } geometry Box { size 0.11811023622047244 0.39370078740157477 0.11811023622047244 } } ] }
Transform { translation 0.2952755905511811 1.1811023622047243 0.05905511811023622 children [ Shape { appearance Appearance { material Material { diffuseColor 0.73 0.57 0.22 } } geometry Box { size 0.11811023622047244 0.39370078740157477 0.11811023622047244 } } ] }
Transform { translation 0.4921259842519685 1.1811023622047243 0.05905511811023622 children [ Shape { appearance Appearance { material Material { diffuseColor 0.73 0.57 0.22 } } geometry Box { size 0.11811023622047244 0.39370078740157477 0.11811023622047244 } } ] }
Transform { translation 0.6889763779527559 1.1811023622047243 0.05905511811023622 children [ Shape { appearance Appearance { material Material { diffuseColor 0.73 0.57 0.22 } } geometry Box { size 0.11811023622047244 0.39370078740157477 0.11811023622047244 } } ] }
Transform { translation 0.8858267716535433 1.1811023622047243 0.05905511811023622 children [ Shape { appearance Appearance { material Material { diffuseColor 0.73 0.57 0.22 } } geometry Box { size 0.11811023622047244 0.39370078740157477 0.11811023622047244 } } ] }
Transform { translation 1.0826771653543308 1.1811023622047243 0.05905511811023622 children [ Shape { appearance Appearance { material Material { diffuseColor 0.73 0.57 0.22 } } geometry Box { size 0.11811023622047244 0.39370078740157477 0.11811023622047244 } } ] }
Transform { translation 1.279527559055118 1.1811023622047243 0.05905511811023622 children [ Shape { appearance Appearance { material Material { diffuseColor 0.73 0.57 0.22 } } geometry Box { size 0.11811023622047244 0.39370078740157477 0.11811023622047244 } } ] }
Transform { translation 1.4763779527559056 1.1811023622047243 0.05905511811023622 children [ Shape { appearance Appearance { material Material { diffuseColor 0.73 0.57 0.22 } } geometry Box { size 0.11811023622047244 0.39370078740157477 0.11811023622047244 } } ] }
Transform { translation 1.6732283464566928 1.1811023622047243 0.05905511811023622 children [ Shape { appearance Appearance { material Material { diffuseColor 0.73 0.57 0.22 } } geometry Box { size 0.11811023622047244 0.39370078740157477 0.11811023622047244 } } ] }
Transform { translation 1.8700787401574803 1.1811023622047243 0.05905511811023622 children [ Shape { appearance Appearance { material Material { diffuseColor 0.73 0.57 0.22 } } geometry Box { size 0.11811023622047244 0.39370078740157477 0.11811023622047244 } } ] }
Transform { translation 2.0669291338582676 1.1811023622047243 0.05905511811023622 children [ Shape { appearance Appearance { material Material { diffuseColor 0.73 0.57 0.22 } } geometry Box { size 0.11811023622047244 0.39370078740157477 0.11811023622047244 } } ] }
Transform { translation 2.263779527559055 1.1811023622047243 0.05905511811023622 children [ Shape { appearance Appearance { material Material { diffuseColor 0.73 0.57 0.22 } } geometry Box { size 0.11811023622047244 0.39370078740157477 0.11811023622047244 } } ] }
Transform { translation 2.4606299212598426 1.1811023622047243 0.05905511811023622 children [ Shape { appearance Appearance { material Material { diffuseColor 0.73 0.57 0.22 } } geometry Box { size 0.11811023622047244 0.39370078740157477 0.11811023622047244 } } ] }
Transform { translation 2.65748031496063 1.1811023622047243 0.05905511811023622 children [ Shape { appearance Appearance { material Material { diffuseColor 0.73 0.57 0.22 } } geometry Box { size 0.11811023622047244 0.39370078740157477 0.11811023622047244 } } ] }
Transform { translation 2.854330708661417 1.1811023622047243 0.05905511811023622 children [ Shape { appearance Appearance { material Material { diffuseColor 0.73 0.57 0.22 } } geometry Box { size 0.11811023622047244 0.39370078740157477 0.11811023622047244 } } ] }
Transform { translation 3.0511811023622046 1.1811023622047243 0.05905511811023622 children [ Shape { appearance Appearance { material Material { diffuseColor 0.73 0.57 0.22 } } geometry Box { size 0.11811023622047244 0.39370078740157477 0.11811023622047244 } } ] }
Transform { translation 3.248031496062992 1.1811023622047243 0.05905511811023622 children [ Shape { appearance Appearance { material Material { diffuseColor 0.73 0.57 0.22 } } geometry Box { size 0.11811023622047244 0.39370078740157477 0.11811023622047244 } } ] }
Transform { translation 3.4448818897637796 1.1811023622047243 0.05905511811023622 children [ Shape { appearance Appearance { material Material { diffuseColor 0.73 0.57 0.22 } } geometry Box { size 0.11811023622047244 0.39370078740157477 0.11811023622047244 } } ] }
Transform { translation 3.6417322834645667 1.1811023622047243 0.05905511811023622 children [ Shape { appearance Appearance { material Material { diffuseColor 0.73 0.57 0.22 } } geometry Box { size 0.11811023622047244 0.39370078740157477 0.11811023622047244 } } ] }
Transform { translation 3.838582677165354 1.1811023622047243 0.05905511811023622 children [ Shape { appearance Appearance { material Material { diffuseColor 0.73 0.57 0.22 } } geometry Box { size 0.11811023622047244 0.39370078740157477 0.11811023622047244 } } ] }
Transform { translation 4.035433070866142 1.1811023622047243 0.05905511811023622 children [ Shape { appearance Appearance { material Material { diffuseColor 0.73 0.57 0.22 } } geometry Box { size 0.11811023622047244 0.39370078740157477 0.11811023622047244 } } ] }
Transform { translation 4.232283464566929 1.1811023622047243 0.05905511811023622 children [ Shape { appearance Appearance { material Material { diffuseColor 0.73 0.57 0.22 } } geometry Box { size 0.11811023622047244 0.39370078740157477 0.11811023622047244 } } ] }
Transform { translation 4.429133858267717 1.1811023622047243 0.05905511811023622 children [ Shape { appearance Appearance { material Material { diffuseColor 0.73 0.57 0.22 } } geometry Box { size 0.11811023622047244 0.39370078740157477 0.11811023622047244 } } ] }
Transform { translation 4.625984251968504 1.1811023622047243 0.05905511811023622 children [ Shape { appearance Appearance { material Material { diffuseColor 0.73 0.57 0.22 } } geometry Box { size 0.11811023622047244 0.39370078740157477 0.11811023622047244 } } ] }
Transform { translation 4.822834645669292 1.1811023622047243 0.05905511811023622 children [ Shape { appearance Appearance { material Material { diffuseColor 0.73 0.57 0.22 } } geometry Box { size 0.11811023622047244 0.39370078740157477 0.11811023622047244 } } ] }
Transform { translation 5.019685039370079 1.1811023622047243 0.05905511811023622 children [ Shape { appearance Appearance { material Material { diffuseColor 0.73 0.57 0.22 } } geometry Box { size 0.11811023622047244 0.39370078740157477 0.11811023622047244 } } ] }
Transform { translation 5.216535433070866 1.1811023622047243 0.05905511811023622 children [ Shape { appearance Appearance { material Material { diffuseColor 0.73 0.57 0.22 } } geometry Box { size 0.11811023622047244 0.39370078740157477 0.11811023622047244 } } ] }
Transform { translation 5.413385826771654 1.1811023622047243 0.05905511811023622 children [ Shape { appearance Appearance { material Material { diffuseColor 0.73 0.57 0.22 } } geometry Box { size 0.11811023622047244 0.39370078740157477 0.11811023622047244 } } ] }
Transform { translation 5.610236220472441 1.1811023622047243 0.05905511811023622 children [ Shape { appearance Appearance { material Material { diffuseColor 0.73 0.57 0.22 } } geometry Box { size 0.11811023622047244 0.39370078740157477 0.11811023622047244 } } ] }
Transform { translation 5.807086614173229 1.1811023622047243 0.05905511811023622 children [ Shape { appearance Appearance { material Material { diffuseColor 0.73 0.57 0.22 } } geometry Box { size 0.11811023622047244 0.39370078740157477 0.11811023622047244 } } ] }
