#VRML V2.0 utf8
# Conceptual geometry, millimetres converted to KiCad VRML units.
Transform { translation 0.0 0.0 0.7874015748031495 children [ Shape { appearance Appearance { material Material { diffuseColor 0.08 0.09 0.1 } } geometry Box { size 7.95275590551181 1.811023622047244 1.574803149606299 } } ] }
Transform { translation -2.854330708661417 -0.7283464566929134 0.11811023622047244 children [ Shape { appearance Appearance { material Material { diffuseColor 0.72 0.58 0.25 } } geometry Box { size 0.07874015748031496 0.4330708661417323 0.23622047244094488 } } ] }
Transform { translation -2.854330708661417 0.7283464566929134 0.11811023622047244 children [ Shape { appearance Appearance { material Material { diffuseColor 0.72 0.58 0.25 } } geometry Box { size 0.07874015748031496 0.4330708661417323 0.23622047244094488 } } ] }
Transform { translation -2.65748031496063 -0.7283464566929134 0.11811023622047244 children [ Shape { appearance Appearance { material Material { diffuseColor 0.72 0.58 0.25 } } geometry Box { size 0.07874015748031496 0.4330708661417323 0.23622047244094488 } } ] }
Transform { translation -2.65748031496063 0.7283464566929134 0.11811023622047244 children [ Shape { appearance Appearance { material Material { diffuseColor 0.72 0.58 0.25 } } geometry Box { size 0.07874015748031496 0.4330708661417323 0.23622047244094488 } } ] }
Transform { translation -2.4606299212598426 -0.7283464566929134 0.11811023622047244 children [ Shape { appearance Appearance { material Material { diffuseColor 0.72 0.58 0.25 } } geometry Box { size 0.07874015748031496 0.4330708661417323 0.23622047244094488 } } ] }
Transform { translation -2.4606299212598426 0.7283464566929134 0.11811023622047244 children [ Shape { appearance Appearance { material Material { diffuseColor 0.72 0.58 0.25 } } geometry Box { size 0.07874015748031496 0.4330708661417323 0.23622047244094488 } } ] }
Transform { translation -2.263779527559055 -0.7283464566929134 0.11811023622047244 children [ Shape { appearance Appearance { material Material { diffuseColor 0.72 0.58 0.25 } } geometry Box { size 0.07874015748031496 0.4330708661417323 0.23622047244094488 } } ] }
Transform { translation -2.263779527559055 0.7283464566929134 0.11811023622047244 children [ Shape { appearance Appearance { material Material { diffuseColor 0.72 0.58 0.25 } } geometry Box { size 0.07874015748031496 0.4330708661417323 0.23622047244094488 } } ] }
Transform { translation -2.0669291338582676 -0.7283464566929134 0.11811023622047244 children [ Shape { appearance Appearance { material Material { diffuseColor 0.72 0.58 0.25 } } geometry Box { size 0.07874015748031496 0.4330708661417323 0.23622047244094488 } } ] }
Transform { translation -2.0669291338582676 0.7283464566929134 0.11811023622047244 children [ Shape { appearance Appearance { material Material { diffuseColor 0.72 0.58 0.25 } } geometry Box { size 0.07874015748031496 0.4330708661417323 0.23622047244094488 } } ] }
Transform { translation -1.8700787401574803 -0.7283464566929134 0.11811023622047244 children [ Shape { appearance Appearance { material Material { diffuseColor 0.72 0.58 0.25 } } geometry Box { size 0.07874015748031496 0.4330708661417323 0.23622047244094488 } } ] }
Transform { translation -1.8700787401574803 0.7283464566929134 0.11811023622047244 children [ Shape { appearance Appearance { material Material { diffuseColor 0.72 0.58 0.25 } } geometry Box { size 0.07874015748031496 0.4330708661417323 0.23622047244094488 } } ] }
Transform { translation -1.6732283464566928 -0.7283464566929134 0.11811023622047244 children [ Shape { appearance Appearance { material Material { diffuseColor 0.72 0.58 0.25 } } geometry Box { size 0.07874015748031496 0.4330708661417323 0.23622047244094488 } } ] }
Transform { translation -1.6732283464566928 0.7283464566929134 0.11811023622047244 children [ Shape { appearance Appearance { material Material { diffuseColor 0.72 0.58 0.25 } } geometry Box { size 0.07874015748031496 0.4330708661417323 0.23622047244094488 } } ] }
Transform { translation -1.4763779527559056 -0.7283464566929134 0.11811023622047244 children [ Shape { appearance Appearance { material Material { diffuseColor 0.72 0.58 0.25 } } geometry Box { size 0.07874015748031496 0.4330708661417323 0.23622047244094488 } } ] }
Transform { translation -1.4763779527559056 0.7283464566929134 0.11811023622047244 children [ Shape { appearance Appearance { material Material { diffuseColor 0.72 0.58 0.25 } } geometry Box { size 0.07874015748031496 0.4330708661417323 0.23622047244094488 } } ] }
Transform { translation -1.279527559055118 -0.7283464566929134 0.11811023622047244 children [ Shape { appearance Appearance { material Material { diffuseColor 0.72 0.58 0.25 } } geometry Box { size 0.07874015748031496 0.4330708661417323 0.23622047244094488 } } ] }
Transform { translation -1.279527559055118 0.7283464566929134 0.11811023622047244 children [ Shape { appearance Appearance { material Material { diffuseColor 0.72 0.58 0.25 } } geometry Box { size 0.07874015748031496 0.4330708661417323 0.23622047244094488 } } ] }
Transform { translation -1.0826771653543308 -0.7283464566929134 0.11811023622047244 children [ Shape { appearance Appearance { material Material { diffuseColor 0.72 0.58 0.25 } } geometry Box { size 0.07874015748031496 0.4330708661417323 0.23622047244094488 } } ] }
Transform { translation -1.0826771653543308 0.7283464566929134 0.11811023622047244 children [ Shape { appearance Appearance { material Material { diffuseColor 0.72 0.58 0.25 } } geometry Box { size 0.07874015748031496 0.4330708661417323 0.23622047244094488 } } ] }
Transform { translation -0.8858267716535433 -0.7283464566929134 0.11811023622047244 children [ Shape { appearance Appearance { material Material { diffuseColor 0.72 0.58 0.25 } } geometry Box { size 0.07874015748031496 0.4330708661417323 0.23622047244094488 } } ] }
Transform { translation -0.8858267716535433 0.7283464566929134 0.11811023622047244 children [ Shape { appearance Appearance { material Material { diffuseColor 0.72 0.58 0.25 } } geometry Box { size 0.07874015748031496 0.4330708661417323 0.23622047244094488 } } ] }
Transform { translation -0.6889763779527559 -0.7283464566929134 0.11811023622047244 children [ Shape { appearance Appearance { material Material { diffuseColor 0.72 0.58 0.25 } } geometry Box { size 0.07874015748031496 0.4330708661417323 0.23622047244094488 } } ] }
Transform { translation -0.6889763779527559 0.7283464566929134 0.11811023622047244 children [ Shape { appearance Appearance { material Material { diffuseColor 0.72 0.58 0.25 } } geometry Box { size 0.07874015748031496 0.4330708661417323 0.23622047244094488 } } ] }
Transform { translation -0.4921259842519685 -0.7283464566929134 0.11811023622047244 children [ Shape { appearance Appearance { material Material { diffuseColor 0.72 0.58 0.25 } } geometry Box { size 0.07874015748031496 0.4330708661417323 0.23622047244094488 } } ] }
Transform { translation -0.4921259842519685 0.7283464566929134 0.11811023622047244 children [ Shape { appearance Appearance { material Material { diffuseColor 0.72 0.58 0.25 } } geometry Box { size 0.07874015748031496 0.4330708661417323 0.23622047244094488 } } ] }
Transform { translation -0.2952755905511811 -0.7283464566929134 0.11811023622047244 children [ Shape { appearance Appearance { material Material { diffuseColor 0.72 0.58 0.25 } } geometry Box { size 0.07874015748031496 0.4330708661417323 0.23622047244094488 } } ] }
Transform { translation -0.2952755905511811 0.7283464566929134 0.11811023622047244 children [ Shape { appearance Appearance { material Material { diffuseColor 0.72 0.58 0.25 } } geometry Box { size 0.07874015748031496 0.4330708661417323 0.23622047244094488 } } ] }
Transform { translation -0.09842519685039369 -0.7283464566929134 0.11811023622047244 children [ Shape { appearance Appearance { material Material { diffuseColor 0.72 0.58 0.25 } } geometry Box { size 0.07874015748031496 0.4330708661417323 0.23622047244094488 } } ] }
Transform { translation -0.09842519685039369 0.7283464566929134 0.11811023622047244 children [ Shape { appearance Appearance { material Material { diffuseColor 0.72 0.58 0.25 } } geometry Box { size 0.07874015748031496 0.4330708661417323 0.23622047244094488 } } ] }
Transform { translation 0.09842519685039369 -0.7283464566929134 0.11811023622047244 children [ Shape { appearance Appearance { material Material { diffuseColor 0.72 0.58 0.25 } } geometry Box { size 0.07874015748031496 0.4330708661417323 0.23622047244094488 } } ] }
Transform { translation 0.09842519685039369 0.7283464566929134 0.11811023622047244 children [ Shape { appearance Appearance { material Material { diffuseColor 0.72 0.58 0.25 } } geometry Box { size 0.07874015748031496 0.4330708661417323 0.23622047244094488 } } ] }
Transform { translation 0.2952755905511811 -0.7283464566929134 0.11811023622047244 children [ Shape { appearance Appearance { material Material { diffuseColor 0.72 0.58 0.25 } } geometry Box { size 0.07874015748031496 0.4330708661417323 0.23622047244094488 } } ] }
Transform { translation 0.2952755905511811 0.7283464566929134 0.11811023622047244 children [ Shape { appearance Appearance { material Material { diffuseColor 0.72 0.58 0.25 } } geometry Box { size 0.07874015748031496 0.4330708661417323 0.23622047244094488 } } ] }
Transform { translation 0.4921259842519685 -0.7283464566929134 0.11811023622047244 children [ Shape { appearance Appearance { material Material { diffuseColor 0.72 0.58 0.25 } } geometry Box { size 0.07874015748031496 0.4330708661417323 0.23622047244094488 } } ] }
Transform { translation 0.4921259842519685 0.7283464566929134 0.11811023622047244 children [ Shape { appearance Appearance { material Material { diffuseColor 0.72 0.58 0.25 } } geometry Box { size 0.07874015748031496 0.4330708661417323 0.23622047244094488 } } ] }
Transform { translation 0.6889763779527559 -0.7283464566929134 0.11811023622047244 children [ Shape { appearance Appearance { material Material { diffuseColor 0.72 0.58 0.25 } } geometry Box { size 0.07874015748031496 0.4330708661417323 0.23622047244094488 } } ] }
Transform { translation 0.6889763779527559 0.7283464566929134 0.11811023622047244 children [ Shape { appearance Appearance { material Material { diffuseColor 0.72 0.58 0.25 } } geometry Box { size 0.07874015748031496 0.4330708661417323 0.23622047244094488 } } ] }
Transform { translation 0.8858267716535433 -0.7283464566929134 0.11811023622047244 children [ Shape { appearance Appearance { material Material { diffuseColor 0.72 0.58 0.25 } } geometry Box { size 0.07874015748031496 0.4330708661417323 0.23622047244094488 } } ] }
Transform { translation 0.8858267716535433 0.7283464566929134 0.11811023622047244 children [ Shape { appearance Appearance { material Material { diffuseColor 0.72 0.58 0.25 } } geometry Box { size 0.07874015748031496 0.4330708661417323 0.23622047244094488 } } ] }
Transform { translation 1.0826771653543308 -0.7283464566929134 0.11811023622047244 children [ Shape { appearance Appearance { material Material { diffuseColor 0.72 0.58 0.25 } } geometry Box { size 0.07874015748031496 0.4330708661417323 0.23622047244094488 } } ] }
Transform { translation 1.0826771653543308 0.7283464566929134 0.11811023622047244 children [ Shape { appearance Appearance { material Material { diffuseColor 0.72 0.58 0.25 } } geometry Box { size 0.07874015748031496 0.4330708661417323 0.23622047244094488 } } ] }
Transform { translation 1.279527559055118 -0.7283464566929134 0.11811023622047244 children [ Shape { appearance Appearance { material Material { diffuseColor 0.72 0.58 0.25 } } geometry Box { size 0.07874015748031496 0.4330708661417323 0.23622047244094488 } } ] }
Transform { translation 1.279527559055118 0.7283464566929134 0.11811023622047244 children [ Shape { appearance Appearance { material Material { diffuseColor 0.72 0.58 0.25 } } geometry Box { size 0.07874015748031496 0.4330708661417323 0.23622047244094488 } } ] }
Transform { translation 1.4763779527559056 -0.7283464566929134 0.11811023622047244 children [ Shape { appearance Appearance { material Material { diffuseColor 0.72 0.58 0.25 } } geometry Box { size 0.07874015748031496 0.4330708661417323 0.23622047244094488 } } ] }
Transform { translation 1.4763779527559056 0.7283464566929134 0.11811023622047244 children [ Shape { appearance Appearance { material Material { diffuseColor 0.72 0.58 0.25 } } geometry Box { size 0.07874015748031496 0.4330708661417323 0.23622047244094488 } } ] }
Transform { translation 1.6732283464566928 -0.7283464566929134 0.11811023622047244 children [ Shape { appearance Appearance { material Material { diffuseColor 0.72 0.58 0.25 } } geometry Box { size 0.07874015748031496 0.4330708661417323 0.23622047244094488 } } ] }
Transform { translation 1.6732283464566928 0.7283464566929134 0.11811023622047244 children [ Shape { appearance Appearance { material Material { diffuseColor 0.72 0.58 0.25 } } geometry Box { size 0.07874015748031496 0.4330708661417323 0.23622047244094488 } } ] }
Transform { translation 1.8700787401574803 -0.7283464566929134 0.11811023622047244 children [ Shape { appearance Appearance { material Material { diffuseColor 0.72 0.58 0.25 } } geometry Box { size 0.07874015748031496 0.4330708661417323 0.23622047244094488 } } ] }
Transform { translation 1.8700787401574803 0.7283464566929134 0.11811023622047244 children [ Shape { appearance Appearance { material Material { diffuseColor 0.72 0.58 0.25 } } geometry Box { size 0.07874015748031496 0.4330708661417323 0.23622047244094488 } } ] }
Transform { translation 2.0669291338582676 -0.7283464566929134 0.11811023622047244 children [ Shape { appearance Appearance { material Material { diffuseColor 0.72 0.58 0.25 } } geometry Box { size 0.07874015748031496 0.4330708661417323 0.23622047244094488 } } ] }
Transform { translation 2.0669291338582676 0.7283464566929134 0.11811023622047244 children [ Shape { appearance Appearance { material Material { diffuseColor 0.72 0.58 0.25 } } geometry Box { size 0.07874015748031496 0.4330708661417323 0.23622047244094488 } } ] }
Transform { translation 2.263779527559055 -0.7283464566929134 0.11811023622047244 children [ Shape { appearance Appearance { material Material { diffuseColor 0.72 0.58 0.25 } } geometry Box { size 0.07874015748031496 0.4330708661417323 0.23622047244094488 } } ] }
Transform { translation 2.263779527559055 0.7283464566929134 0.11811023622047244 children [ Shape { appearance Appearance { material Material { diffuseColor 0.72 0.58 0.25 } } geometry Box { size 0.07874015748031496 0.4330708661417323 0.23622047244094488 } } ] }
Transform { translation 2.4606299212598426 -0.7283464566929134 0.11811023622047244 children [ Shape { appearance Appearance { material Material { diffuseColor 0.72 0.58 0.25 } } geometry Box { size 0.07874015748031496 0.4330708661417323 0.23622047244094488 } } ] }
Transform { translation 2.4606299212598426 0.7283464566929134 0.11811023622047244 children [ Shape { appearance Appearance { material Material { diffuseColor 0.72 0.58 0.25 } } geometry Box { size 0.07874015748031496 0.4330708661417323 0.23622047244094488 } } ] }
Transform { translation 2.65748031496063 -0.7283464566929134 0.11811023622047244 children [ Shape { appearance Appearance { material Material { diffuseColor 0.72 0.58 0.25 } } geometry Box { size 0.07874015748031496 0.4330708661417323 0.23622047244094488 } } ] }
Transform { translation 2.65748031496063 0.7283464566929134 0.11811023622047244 children [ Shape { appearance Appearance { material Material { diffuseColor 0.72 0.58 0.25 } } geometry Box { size 0.07874015748031496 0.4330708661417323 0.23622047244094488 } } ] }
Transform { translation 2.854330708661417 -0.7283464566929134 0.11811023622047244 children [ Shape { appearance Appearance { material Material { diffuseColor 0.72 0.58 0.25 } } geometry Box { size 0.07874015748031496 0.4330708661417323 0.23622047244094488 } } ] }
Transform { translation 2.854330708661417 0.7283464566929134 0.11811023622047244 children [ Shape { appearance Appearance { material Material { diffuseColor 0.72 0.58 0.25 } } geometry Box { size 0.07874015748031496 0.4330708661417323 0.23622047244094488 } } ] }
