#VRML V2.0 utf8
# Conceptual geometry, millimetres converted to KiCad VRML units.
Transform { translation 16.73228346456693 -11.023622047244094 -8.29488188976378 children [ Shape { appearance Appearance { material Material { diffuseColor 0.04 0.28 0.15 } } geometry Box { size 33.46456692913386 22.04724409448819 0.6299212598425197 } } ] }
Transform { translation 12.795275590551181 -1.3779527559055118 -7.479921259842519 children [ Shape { appearance Appearance { material Material { diffuseColor 0.045 0.045 0.055 } } geometry Box { size 20.078740157480315 2.0078740157480315 1.0 } } ] }
Transform { translation 3.299212598425197 -0.8779527559055118 -6.011417322834645 children [ Shape { appearance Appearance { material Material { diffuseColor 0.75 0.6 0.25 } } geometry Box { size 0.25196850393700787 0.25196850393700787 2.3622047244094486 } } ] }
Transform { translation 3.299212598425197 -1.8779527559055116 -6.011417322834645 children [ Shape { appearance Appearance { material Material { diffuseColor 0.75 0.6 0.25 } } geometry Box { size 0.25196850393700787 0.25196850393700787 2.3622047244094486 } } ] }
Transform { translation 4.299212598425197 -0.8779527559055118 -6.011417322834645 children [ Shape { appearance Appearance { material Material { diffuseColor 0.75 0.6 0.25 } } geometry Box { size 0.25196850393700787 0.25196850393700787 2.3622047244094486 } } ] }
Transform { translation 4.299212598425197 -1.8779527559055116 -6.011417322834645 children [ Shape { appearance Appearance { material Material { diffuseColor 0.75 0.6 0.25 } } geometry Box { size 0.25196850393700787 0.25196850393700787 2.3622047244094486 } } ] }
Transform { translation 5.299212598425197 -0.8779527559055118 -6.011417322834645 children [ Shape { appearance Appearance { material Material { diffuseColor 0.75 0.6 0.25 } } geometry Box { size 0.25196850393700787 0.25196850393700787 2.3622047244094486 } } ] }
Transform { translation 5.299212598425197 -1.8779527559055116 -6.011417322834645 children [ Shape { appearance Appearance { material Material { diffuseColor 0.75 0.6 0.25 } } geometry Box { size 0.25196850393700787 0.25196850393700787 2.3622047244094486 } } ] }
Transform { translation 6.299212598425196 -0.8779527559055118 -6.011417322834645 children [ Shape { appearance Appearance { material Material { diffuseColor 0.75 0.6 0.25 } } geometry Box { size 0.25196850393700787 0.25196850393700787 2.3622047244094486 } } ] }
Transform { translation 6.299212598425196 -1.8779527559055116 -6.011417322834645 children [ Shape { appearance Appearance { material Material { diffuseColor 0.75 0.6 0.25 } } geometry Box { size 0.25196850393700787 0.25196850393700787 2.3622047244094486 } } ] }
Transform { translation 7.299212598425196 -0.8779527559055118 -6.011417322834645 children [ Shape { appearance Appearance { material Material { diffuseColor 0.75 0.6 0.25 } } geometry Box { size 0.25196850393700787 0.25196850393700787 2.3622047244094486 } } ] }
Transform { translation 7.299212598425196 -1.8779527559055116 -6.011417322834645 children [ Shape { appearance Appearance { material Material { diffuseColor 0.75 0.6 0.25 } } geometry Box { size 0.25196850393700787 0.25196850393700787 2.3622047244094486 } } ] }
Transform { translation 8.299212598425196 -0.8779527559055118 -6.011417322834645 children [ Shape { appearance Appearance { material Material { diffuseColor 0.75 0.6 0.25 } } geometry Box { size 0.25196850393700787 0.25196850393700787 2.3622047244094486 } } ] }
Transform { translation 8.299212598425196 -1.8779527559055116 -6.011417322834645 children [ Shape { appearance Appearance { material Material { diffuseColor 0.75 0.6 0.25 } } geometry Box { size 0.25196850393700787 0.25196850393700787 2.3622047244094486 } } ] }
Transform { translation 9.299212598425196 -0.8779527559055118 -6.011417322834645 children [ Shape { appearance Appearance { material Material { diffuseColor 0.75 0.6 0.25 } } geometry Box { size 0.25196850393700787 0.25196850393700787 2.3622047244094486 } } ] }
Transform { translation 9.299212598425196 -1.8779527559055116 -6.011417322834645 children [ Shape { appearance Appearance { material Material { diffuseColor 0.75 0.6 0.25 } } geometry Box { size 0.25196850393700787 0.25196850393700787 2.3622047244094486 } } ] }
Transform { translation 10.299212598425198 -0.8779527559055118 -6.011417322834645 children [ Shape { appearance Appearance { material Material { diffuseColor 0.75 0.6 0.25 } } geometry Box { size 0.25196850393700787 0.25196850393700787 2.3622047244094486 } } ] }
Transform { translation 10.299212598425198 -1.8779527559055116 -6.011417322834645 children [ Shape { appearance Appearance { material Material { diffuseColor 0.75 0.6 0.25 } } geometry Box { size 0.25196850393700787 0.25196850393700787 2.3622047244094486 } } ] }
Transform { translation 11.299212598425198 -0.8779527559055118 -6.011417322834645 children [ Shape { appearance Appearance { material Material { diffuseColor 0.75 0.6 0.25 } } geometry Box { size 0.25196850393700787 0.25196850393700787 2.3622047244094486 } } ] }
Transform { translation 11.299212598425198 -1.8779527559055116 -6.011417322834645 children [ Shape { appearance Appearance { material Material { diffuseColor 0.75 0.6 0.25 } } geometry Box { size 0.25196850393700787 0.25196850393700787 2.3622047244094486 } } ] }
Transform { translation 12.299212598425198 -0.8779527559055118 -6.011417322834645 children [ Shape { appearance Appearance { material Material { diffuseColor 0.75 0.6 0.25 } } geometry Box { size 0.25196850393700787 0.25196850393700787 2.3622047244094486 } } ] }
Transform { translation 12.299212598425198 -1.8779527559055116 -6.011417322834645 children [ Shape { appearance Appearance { material Material { diffuseColor 0.75 0.6 0.25 } } geometry Box { size 0.25196850393700787 0.25196850393700787 2.3622047244094486 } } ] }
Transform { translation 13.299212598425196 -0.8779527559055118 -6.011417322834645 children [ Shape { appearance Appearance { material Material { diffuseColor 0.75 0.6 0.25 } } geometry Box { size 0.25196850393700787 0.25196850393700787 2.3622047244094486 } } ] }
Transform { translation 13.299212598425196 -1.8779527559055116 -6.011417322834645 children [ Shape { appearance Appearance { material Material { diffuseColor 0.75 0.6 0.25 } } geometry Box { size 0.25196850393700787 0.25196850393700787 2.3622047244094486 } } ] }
Transform { translation 14.299212598425196 -0.8779527559055118 -6.011417322834645 children [ Shape { appearance Appearance { material Material { diffuseColor 0.75 0.6 0.25 } } geometry Box { size 0.25196850393700787 0.25196850393700787 2.3622047244094486 } } ] }
Transform { translation 14.299212598425196 -1.8779527559055116 -6.011417322834645 children [ Shape { appearance Appearance { material Material { diffuseColor 0.75 0.6 0.25 } } geometry Box { size 0.25196850393700787 0.25196850393700787 2.3622047244094486 } } ] }
Transform { translation 15.299212598425196 -0.8779527559055118 -6.011417322834645 children [ Shape { appearance Appearance { material Material { diffuseColor 0.75 0.6 0.25 } } geometry Box { size 0.25196850393700787 0.25196850393700787 2.3622047244094486 } } ] }
Transform { translation 15.299212598425196 -1.8779527559055116 -6.011417322834645 children [ Shape { appearance Appearance { material Material { diffuseColor 0.75 0.6 0.25 } } geometry Box { size 0.25196850393700787 0.25196850393700787 2.3622047244094486 } } ] }
Transform { translation 16.2992125984252 -0.8779527559055118 -6.011417322834645 children [ Shape { appearance Appearance { material Material { diffuseColor 0.75 0.6 0.25 } } geometry Box { size 0.25196850393700787 0.25196850393700787 2.3622047244094486 } } ] }
Transform { translation 16.2992125984252 -1.8779527559055116 -6.011417322834645 children [ Shape { appearance Appearance { material Material { diffuseColor 0.75 0.6 0.25 } } geometry Box { size 0.25196850393700787 0.25196850393700787 2.3622047244094486 } } ] }
Transform { translation 17.2992125984252 -0.8779527559055118 -6.011417322834645 children [ Shape { appearance Appearance { material Material { diffuseColor 0.75 0.6 0.25 } } geometry Box { size 0.25196850393700787 0.25196850393700787 2.3622047244094486 } } ] }
Transform { translation 17.2992125984252 -1.8779527559055116 -6.011417322834645 children [ Shape { appearance Appearance { material Material { diffuseColor 0.75 0.6 0.25 } } geometry Box { size 0.25196850393700787 0.25196850393700787 2.3622047244094486 } } ] }
Transform { translation 18.2992125984252 -0.8779527559055118 -6.011417322834645 children [ Shape { appearance Appearance { material Material { diffuseColor 0.75 0.6 0.25 } } geometry Box { size 0.25196850393700787 0.25196850393700787 2.3622047244094486 } } ] }
Transform { translation 18.2992125984252 -1.8779527559055116 -6.011417322834645 children [ Shape { appearance Appearance { material Material { diffuseColor 0.75 0.6 0.25 } } geometry Box { size 0.25196850393700787 0.25196850393700787 2.3622047244094486 } } ] }
Transform { translation 19.299212598425196 -0.8779527559055118 -6.011417322834645 children [ Shape { appearance Appearance { material Material { diffuseColor 0.75 0.6 0.25 } } geometry Box { size 0.25196850393700787 0.25196850393700787 2.3622047244094486 } } ] }
Transform { translation 19.299212598425196 -1.8779527559055116 -6.011417322834645 children [ Shape { appearance Appearance { material Material { diffuseColor 0.75 0.6 0.25 } } geometry Box { size 0.25196850393700787 0.25196850393700787 2.3622047244094486 } } ] }
Transform { translation 20.299212598425196 -0.8779527559055118 -6.011417322834645 children [ Shape { appearance Appearance { material Material { diffuseColor 0.75 0.6 0.25 } } geometry Box { size 0.25196850393700787 0.25196850393700787 2.3622047244094486 } } ] }
Transform { translation 20.299212598425196 -1.8779527559055116 -6.011417322834645 children [ Shape { appearance Appearance { material Material { diffuseColor 0.75 0.6 0.25 } } geometry Box { size 0.25196850393700787 0.25196850393700787 2.3622047244094486 } } ] }
Transform { translation 21.299212598425196 -0.8779527559055118 -6.011417322834645 children [ Shape { appearance Appearance { material Material { diffuseColor 0.75 0.6 0.25 } } geometry Box { size 0.25196850393700787 0.25196850393700787 2.3622047244094486 } } ] }
Transform { translation 21.299212598425196 -1.8779527559055116 -6.011417322834645 children [ Shape { appearance Appearance { material Material { diffuseColor 0.75 0.6 0.25 } } geometry Box { size 0.25196850393700787 0.25196850393700787 2.3622047244094486 } } ] }
Transform { translation 22.299212598425196 -0.8779527559055118 -6.011417322834645 children [ Shape { appearance Appearance { material Material { diffuseColor 0.75 0.6 0.25 } } geometry Box { size 0.25196850393700787 0.25196850393700787 2.3622047244094486 } } ] }
Transform { translation 22.299212598425196 -1.8779527559055116 -6.011417322834645 children [ Shape { appearance Appearance { material Material { diffuseColor 0.75 0.6 0.25 } } geometry Box { size 0.25196850393700787 0.25196850393700787 2.3622047244094486 } } ] }
Transform { translation 12.204724409448819 -11.023622047244094 -7.4287401574803145 children [ Shape { appearance Appearance { material Material { diffuseColor 0.16 0.17 0.18 } } geometry Box { size 5.905511811023622 5.905511811023622 1.1023622047244093 } } ] }
Transform { translation 19.68503937007874 -12.204724409448819 -7.704330708661417 children [ Shape { appearance Appearance { material Material { diffuseColor 0.055 0.06 0.07 } } geometry Box { size 4.330708661417323 5.511811023622047 0.5511811023622046 } } ] }
Transform { translation 29.921259842519685 -4.133858267716535 -4.9287401574803145 children [ Shape { appearance Appearance { material Material { diffuseColor 0.6 0.64 0.67 } } geometry Box { size 8.26771653543307 6.299212598425196 6.102362204724409 } } ] }
Transform { translation 29.921259842519685 -11.417322834645669 -4.830314960629921 children [ Shape { appearance Appearance { material Material { diffuseColor 0.6 0.64 0.67 } } geometry Box { size 8.26771653543307 5.905511811023622 6.299212598425196 } } ] }
Transform { translation 29.921259842519685 -18.503937007874015 -4.830314960629921 children [ Shape { appearance Appearance { material Material { diffuseColor 0.6 0.64 0.67 } } geometry Box { size 8.26771653543307 5.905511811023622 6.299212598425196 } } ] }
Transform { translation 4.330708661417323 -21.25984251968504 -7.349999999999999 children [ Shape { appearance Appearance { material Material { diffuseColor 0.6 0.64 0.67 } } geometry Box { size 3.543307086614173 2.3622047244094486 1.2598425196850394 } } ] }
Transform { translation 10.236220472440944 -21.25984251968504 -7.389370078740157 children [ Shape { appearance Appearance { material Material { diffuseColor 0.6 0.64 0.67 } } geometry Box { size 2.7559055118110236 2.3622047244094486 1.1811023622047243 } } ] }
Transform { translation 15.354330708661417 -21.25984251968504 -7.389370078740157 children [ Shape { appearance Appearance { material Material { diffuseColor 0.6 0.64 0.67 } } geometry Box { size 2.7559055118110236 2.3622047244094486 1.1811023622047243 } } ] }
Transform { translation 1.3779527559055118 -1.3779527559055118 -4.304921259842519 rotation 1 0 0 1.570796 children [ Shape { appearance Appearance { material Material { diffuseColor 0.69 0.7 0.72 } } geometry Cylinder { radius 0.9448818897637795 height 7.35 } } ] }
Transform { translation 24.212598425196852 -1.3779527559055118 -4.304921259842519 rotation 1 0 0 1.570796 children [ Shape { appearance Appearance { material Material { diffuseColor 0.69 0.7 0.72 } } geometry Cylinder { radius 0.9448818897637795 height 7.35 } } ] }
Transform { translation 1.3779527559055118 -20.669291338582678 -4.304921259842519 rotation 1 0 0 1.570796 children [ Shape { appearance Appearance { material Material { diffuseColor 0.69 0.7 0.72 } } geometry Cylinder { radius 0.9448818897637795 height 7.35 } } ] }
Transform { translation 24.212598425196852 -20.669291338582678 -4.304921259842519 rotation 1 0 0 1.570796 children [ Shape { appearance Appearance { material Material { diffuseColor 0.69 0.7 0.72 } } geometry Cylinder { radius 0.9448818897637795 height 7.35 } } ] }
Transform { translation 4.724409448818897 -4.330708661417323 -7.783070866141731 children [ Shape { appearance Appearance { material Material { diffuseColor 0.12 0.13 0.14 } } geometry Box { size 1.574803149606299 1.1811023622047243 0.39370078740157477 } } ] }
Transform { translation 7.874015748031496 -16.53543307086614 -7.783070866141731 children [ Shape { appearance Appearance { material Material { diffuseColor 0.12 0.13 0.14 } } geometry Box { size 1.574803149606299 1.1811023622047243 0.39370078740157477 } } ] }
Transform { translation 17.716535433070867 -5.905511811023622 -7.783070866141731 children [ Shape { appearance Appearance { material Material { diffuseColor 0.12 0.13 0.14 } } geometry Box { size 1.574803149606299 1.1811023622047243 0.39370078740157477 } } ] }
Transform { translation 22.440944881889763 -16.929133858267715 -7.783070866141731 children [ Shape { appearance Appearance { material Material { diffuseColor 0.12 0.13 0.14 } } geometry Box { size 1.574803149606299 1.1811023622047243 0.39370078740157477 } } ] }
Transform { translation 24.409448818897637 -7.874015748031496 -7.783070866141731 children [ Shape { appearance Appearance { material Material { diffuseColor 0.12 0.13 0.14 } } geometry Box { size 1.574803149606299 1.1811023622047243 0.39370078740157477 } } ] }
