#VRML V2.0 utf8
# Simplified mechanical envelope; dimensions in 0.1 inch model units.
Transform { translation 0.5 -9.5 -2.1653543307086616 children [ Shape { appearance Appearance { material Material { diffuseColor 0.055 0.055 0.06 } } geometry Box { size 2.0078740157480315 20.0 3.149606299212598 } } ] }
Transform { translation 0.0 0.0 -3.75984251968504 children [ Shape { appearance Appearance { material Material { diffuseColor 0.01 0.01 0.012 } } geometry Box { size 0.4921259842519685 0.4921259842519685 0.05905511811023622 } } ] }
Transform { translation 0.0 0.0 0.19685039370078738 children [ Shape { appearance Appearance { material Material { diffuseColor 0.65 0.52 0.22 } } geometry Box { size 0.25196850393700787 0.25196850393700787 0.7874015748031495 } } ] }
Transform { translation 1.0 0.0 -3.75984251968504 children [ Shape { appearance Appearance { material Material { diffuseColor 0.01 0.01 0.012 } } geometry Box { size 0.4921259842519685 0.4921259842519685 0.05905511811023622 } } ] }
Transform { translation 1.0 0.0 0.19685039370078738 children [ Shape { appearance Appearance { material Material { diffuseColor 0.65 0.52 0.22 } } geometry Box { size 0.25196850393700787 0.25196850393700787 0.7874015748031495 } } ] }
Transform { translation 0.0 -1.0 -3.75984251968504 children [ Shape { appearance Appearance { material Material { diffuseColor 0.01 0.01 0.012 } } geometry Box { size 0.4921259842519685 0.4921259842519685 0.05905511811023622 } } ] }
Transform { translation 0.0 -1.0 0.19685039370078738 children [ Shape { appearance Appearance { material Material { diffuseColor 0.65 0.52 0.22 } } geometry Box { size 0.25196850393700787 0.25196850393700787 0.7874015748031495 } } ] }
Transform { translation 1.0 -1.0 -3.75984251968504 children [ Shape { appearance Appearance { material Material { diffuseColor 0.01 0.01 0.012 } } geometry Box { size 0.4921259842519685 0.4921259842519685 0.05905511811023622 } } ] }
Transform { translation 1.0 -1.0 0.19685039370078738 children [ Shape { appearance Appearance { material Material { diffuseColor 0.65 0.52 0.22 } } geometry Box { size 0.25196850393700787 0.25196850393700787 0.7874015748031495 } } ] }
Transform { translation 0.0 -2.0 -3.75984251968504 children [ Shape { appearance Appearance { material Material { diffuseColor 0.01 0.01 0.012 } } geometry Box { size 0.4921259842519685 0.4921259842519685 0.05905511811023622 } } ] }
Transform { translation 0.0 -2.0 0.19685039370078738 children [ Shape { appearance Appearance { material Material { diffuseColor 0.65 0.52 0.22 } } geometry Box { size 0.25196850393700787 0.25196850393700787 0.7874015748031495 } } ] }
Transform { translation 1.0 -2.0 -3.75984251968504 children [ Shape { appearance Appearance { material Material { diffuseColor 0.01 0.01 0.012 } } geometry Box { size 0.4921259842519685 0.4921259842519685 0.05905511811023622 } } ] }
Transform { translation 1.0 -2.0 0.19685039370078738 children [ Shape { appearance Appearance { material Material { diffuseColor 0.65 0.52 0.22 } } geometry Box { size 0.25196850393700787 0.25196850393700787 0.7874015748031495 } } ] }
Transform { translation 0.0 -3.0 -3.75984251968504 children [ Shape { appearance Appearance { material Material { diffuseColor 0.01 0.01 0.012 } } geometry Box { size 0.4921259842519685 0.4921259842519685 0.05905511811023622 } } ] }
Transform { translation 0.0 -3.0 0.19685039370078738 children [ Shape { appearance Appearance { material Material { diffuseColor 0.65 0.52 0.22 } } geometry Box { size 0.25196850393700787 0.25196850393700787 0.7874015748031495 } } ] }
Transform { translation 1.0 -3.0 -3.75984251968504 children [ Shape { appearance Appearance { material Material { diffuseColor 0.01 0.01 0.012 } } geometry Box { size 0.4921259842519685 0.4921259842519685 0.05905511811023622 } } ] }
Transform { translation 1.0 -3.0 0.19685039370078738 children [ Shape { appearance Appearance { material Material { diffuseColor 0.65 0.52 0.22 } } geometry Box { size 0.25196850393700787 0.25196850393700787 0.7874015748031495 } } ] }
Transform { translation 0.0 -4.0 -3.75984251968504 children [ Shape { appearance Appearance { material Material { diffuseColor 0.01 0.01 0.012 } } geometry Box { size 0.4921259842519685 0.4921259842519685 0.05905511811023622 } } ] }
Transform { translation 0.0 -4.0 0.19685039370078738 children [ Shape { appearance Appearance { material Material { diffuseColor 0.65 0.52 0.22 } } geometry Box { size 0.25196850393700787 0.25196850393700787 0.7874015748031495 } } ] }
Transform { translation 1.0 -4.0 -3.75984251968504 children [ Shape { appearance Appearance { material Material { diffuseColor 0.01 0.01 0.012 } } geometry Box { size 0.4921259842519685 0.4921259842519685 0.05905511811023622 } } ] }
Transform { translation 1.0 -4.0 0.19685039370078738 children [ Shape { appearance Appearance { material Material { diffuseColor 0.65 0.52 0.22 } } geometry Box { size 0.25196850393700787 0.25196850393700787 0.7874015748031495 } } ] }
Transform { translation 0.0 -5.0 -3.75984251968504 children [ Shape { appearance Appearance { material Material { diffuseColor 0.01 0.01 0.012 } } geometry Box { size 0.4921259842519685 0.4921259842519685 0.05905511811023622 } } ] }
Transform { translation 0.0 -5.0 0.19685039370078738 children [ Shape { appearance Appearance { material Material { diffuseColor 0.65 0.52 0.22 } } geometry Box { size 0.25196850393700787 0.25196850393700787 0.7874015748031495 } } ] }
Transform { translation 1.0 -5.0 -3.75984251968504 children [ Shape { appearance Appearance { material Material { diffuseColor 0.01 0.01 0.012 } } geometry Box { size 0.4921259842519685 0.4921259842519685 0.05905511811023622 } } ] }
Transform { translation 1.0 -5.0 0.19685039370078738 children [ Shape { appearance Appearance { material Material { diffuseColor 0.65 0.52 0.22 } } geometry Box { size 0.25196850393700787 0.25196850393700787 0.7874015748031495 } } ] }
Transform { translation 0.0 -6.0 -3.75984251968504 children [ Shape { appearance Appearance { material Material { diffuseColor 0.01 0.01 0.012 } } geometry Box { size 0.4921259842519685 0.4921259842519685 0.05905511811023622 } } ] }
Transform { translation 0.0 -6.0 0.19685039370078738 children [ Shape { appearance Appearance { material Material { diffuseColor 0.65 0.52 0.22 } } geometry Box { size 0.25196850393700787 0.25196850393700787 0.7874015748031495 } } ] }
Transform { translation 1.0 -6.0 -3.75984251968504 children [ Shape { appearance Appearance { material Material { diffuseColor 0.01 0.01 0.012 } } geometry Box { size 0.4921259842519685 0.4921259842519685 0.05905511811023622 } } ] }
Transform { translation 1.0 -6.0 0.19685039370078738 children [ Shape { appearance Appearance { material Material { diffuseColor 0.65 0.52 0.22 } } geometry Box { size 0.25196850393700787 0.25196850393700787 0.7874015748031495 } } ] }
Transform { translation 0.0 -7.0 -3.75984251968504 children [ Shape { appearance Appearance { material Material { diffuseColor 0.01 0.01 0.012 } } geometry Box { size 0.4921259842519685 0.4921259842519685 0.05905511811023622 } } ] }
Transform { translation 0.0 -7.0 0.19685039370078738 children [ Shape { appearance Appearance { material Material { diffuseColor 0.65 0.52 0.22 } } geometry Box { size 0.25196850393700787 0.25196850393700787 0.7874015748031495 } } ] }
Transform { translation 1.0 -7.0 -3.75984251968504 children [ Shape { appearance Appearance { material Material { diffuseColor 0.01 0.01 0.012 } } geometry Box { size 0.4921259842519685 0.4921259842519685 0.05905511811023622 } } ] }
Transform { translation 1.0 -7.0 0.19685039370078738 children [ Shape { appearance Appearance { material Material { diffuseColor 0.65 0.52 0.22 } } geometry Box { size 0.25196850393700787 0.25196850393700787 0.7874015748031495 } } ] }
Transform { translation 0.0 -8.0 -3.75984251968504 children [ Shape { appearance Appearance { material Material { diffuseColor 0.01 0.01 0.012 } } geometry Box { size 0.4921259842519685 0.4921259842519685 0.05905511811023622 } } ] }
Transform { translation 0.0 -8.0 0.19685039370078738 children [ Shape { appearance Appearance { material Material { diffuseColor 0.65 0.52 0.22 } } geometry Box { size 0.25196850393700787 0.25196850393700787 0.7874015748031495 } } ] }
Transform { translation 1.0 -8.0 -3.75984251968504 children [ Shape { appearance Appearance { material Material { diffuseColor 0.01 0.01 0.012 } } geometry Box { size 0.4921259842519685 0.4921259842519685 0.05905511811023622 } } ] }
Transform { translation 1.0 -8.0 0.19685039370078738 children [ Shape { appearance Appearance { material Material { diffuseColor 0.65 0.52 0.22 } } geometry Box { size 0.25196850393700787 0.25196850393700787 0.7874015748031495 } } ] }
Transform { translation 0.0 -9.0 -3.75984251968504 children [ Shape { appearance Appearance { material Material { diffuseColor 0.01 0.01 0.012 } } geometry Box { size 0.4921259842519685 0.4921259842519685 0.05905511811023622 } } ] }
Transform { translation 0.0 -9.0 0.19685039370078738 children [ Shape { appearance Appearance { material Material { diffuseColor 0.65 0.52 0.22 } } geometry Box { size 0.25196850393700787 0.25196850393700787 0.7874015748031495 } } ] }
Transform { translation 1.0 -9.0 -3.75984251968504 children [ Shape { appearance Appearance { material Material { diffuseColor 0.01 0.01 0.012 } } geometry Box { size 0.4921259842519685 0.4921259842519685 0.05905511811023622 } } ] }
Transform { translation 1.0 -9.0 0.19685039370078738 children [ Shape { appearance Appearance { material Material { diffuseColor 0.65 0.52 0.22 } } geometry Box { size 0.25196850393700787 0.25196850393700787 0.7874015748031495 } } ] }
Transform { translation 0.0 -10.0 -3.75984251968504 children [ Shape { appearance Appearance { material Material { diffuseColor 0.01 0.01 0.012 } } geometry Box { size 0.4921259842519685 0.4921259842519685 0.05905511811023622 } } ] }
Transform { translation 0.0 -10.0 0.19685039370078738 children [ Shape { appearance Appearance { material Material { diffuseColor 0.65 0.52 0.22 } } geometry Box { size 0.25196850393700787 0.25196850393700787 0.7874015748031495 } } ] }
Transform { translation 1.0 -10.0 -3.75984251968504 children [ Shape { appearance Appearance { material Material { diffuseColor 0.01 0.01 0.012 } } geometry Box { size 0.4921259842519685 0.4921259842519685 0.05905511811023622 } } ] }
Transform { translation 1.0 -10.0 0.19685039370078738 children [ Shape { appearance Appearance { material Material { diffuseColor 0.65 0.52 0.22 } } geometry Box { size 0.25196850393700787 0.25196850393700787 0.7874015748031495 } } ] }
Transform { translation 0.0 -11.0 -3.75984251968504 children [ Shape { appearance Appearance { material Material { diffuseColor 0.01 0.01 0.012 } } geometry Box { size 0.4921259842519685 0.4921259842519685 0.05905511811023622 } } ] }
Transform { translation 0.0 -11.0 0.19685039370078738 children [ Shape { appearance Appearance { material Material { diffuseColor 0.65 0.52 0.22 } } geometry Box { size 0.25196850393700787 0.25196850393700787 0.7874015748031495 } } ] }
Transform { translation 1.0 -11.0 -3.75984251968504 children [ Shape { appearance Appearance { material Material { diffuseColor 0.01 0.01 0.012 } } geometry Box { size 0.4921259842519685 0.4921259842519685 0.05905511811023622 } } ] }
Transform { translation 1.0 -11.0 0.19685039370078738 children [ Shape { appearance Appearance { material Material { diffuseColor 0.65 0.52 0.22 } } geometry Box { size 0.25196850393700787 0.25196850393700787 0.7874015748031495 } } ] }
Transform { translation 0.0 -12.0 -3.75984251968504 children [ Shape { appearance Appearance { material Material { diffuseColor 0.01 0.01 0.012 } } geometry Box { size 0.4921259842519685 0.4921259842519685 0.05905511811023622 } } ] }
Transform { translation 0.0 -12.0 0.19685039370078738 children [ Shape { appearance Appearance { material Material { diffuseColor 0.65 0.52 0.22 } } geometry Box { size 0.25196850393700787 0.25196850393700787 0.7874015748031495 } } ] }
Transform { translation 1.0 -12.0 -3.75984251968504 children [ Shape { appearance Appearance { material Material { diffuseColor 0.01 0.01 0.012 } } geometry Box { size 0.4921259842519685 0.4921259842519685 0.05905511811023622 } } ] }
Transform { translation 1.0 -12.0 0.19685039370078738 children [ Shape { appearance Appearance { material Material { diffuseColor 0.65 0.52 0.22 } } geometry Box { size 0.25196850393700787 0.25196850393700787 0.7874015748031495 } } ] }
Transform { translation 0.0 -13.000000000000002 -3.75984251968504 children [ Shape { appearance Appearance { material Material { diffuseColor 0.01 0.01 0.012 } } geometry Box { size 0.4921259842519685 0.4921259842519685 0.05905511811023622 } } ] }
Transform { translation 0.0 -13.000000000000002 0.19685039370078738 children [ Shape { appearance Appearance { material Material { diffuseColor 0.65 0.52 0.22 } } geometry Box { size 0.25196850393700787 0.25196850393700787 0.7874015748031495 } } ] }
Transform { translation 1.0 -13.000000000000002 -3.75984251968504 children [ Shape { appearance Appearance { material Material { diffuseColor 0.01 0.01 0.012 } } geometry Box { size 0.4921259842519685 0.4921259842519685 0.05905511811023622 } } ] }
Transform { translation 1.0 -13.000000000000002 0.19685039370078738 children [ Shape { appearance Appearance { material Material { diffuseColor 0.65 0.52 0.22 } } geometry Box { size 0.25196850393700787 0.25196850393700787 0.7874015748031495 } } ] }
Transform { translation 0.0 -14.0 -3.75984251968504 children [ Shape { appearance Appearance { material Material { diffuseColor 0.01 0.01 0.012 } } geometry Box { size 0.4921259842519685 0.4921259842519685 0.05905511811023622 } } ] }
Transform { translation 0.0 -14.0 0.19685039370078738 children [ Shape { appearance Appearance { material Material { diffuseColor 0.65 0.52 0.22 } } geometry Box { size 0.25196850393700787 0.25196850393700787 0.7874015748031495 } } ] }
Transform { translation 1.0 -14.0 -3.75984251968504 children [ Shape { appearance Appearance { material Material { diffuseColor 0.01 0.01 0.012 } } geometry Box { size 0.4921259842519685 0.4921259842519685 0.05905511811023622 } } ] }
Transform { translation 1.0 -14.0 0.19685039370078738 children [ Shape { appearance Appearance { material Material { diffuseColor 0.65 0.52 0.22 } } geometry Box { size 0.25196850393700787 0.25196850393700787 0.7874015748031495 } } ] }
Transform { translation 0.0 -15.0 -3.75984251968504 children [ Shape { appearance Appearance { material Material { diffuseColor 0.01 0.01 0.012 } } geometry Box { size 0.4921259842519685 0.4921259842519685 0.05905511811023622 } } ] }
Transform { translation 0.0 -15.0 0.19685039370078738 children [ Shape { appearance Appearance { material Material { diffuseColor 0.65 0.52 0.22 } } geometry Box { size 0.25196850393700787 0.25196850393700787 0.7874015748031495 } } ] }
Transform { translation 1.0 -15.0 -3.75984251968504 children [ Shape { appearance Appearance { material Material { diffuseColor 0.01 0.01 0.012 } } geometry Box { size 0.4921259842519685 0.4921259842519685 0.05905511811023622 } } ] }
Transform { translation 1.0 -15.0 0.19685039370078738 children [ Shape { appearance Appearance { material Material { diffuseColor 0.65 0.52 0.22 } } geometry Box { size 0.25196850393700787 0.25196850393700787 0.7874015748031495 } } ] }
Transform { translation 0.0 -16.0 -3.75984251968504 children [ Shape { appearance Appearance { material Material { diffuseColor 0.01 0.01 0.012 } } geometry Box { size 0.4921259842519685 0.4921259842519685 0.05905511811023622 } } ] }
Transform { translation 0.0 -16.0 0.19685039370078738 children [ Shape { appearance Appearance { material Material { diffuseColor 0.65 0.52 0.22 } } geometry Box { size 0.25196850393700787 0.25196850393700787 0.7874015748031495 } } ] }
Transform { translation 1.0 -16.0 -3.75984251968504 children [ Shape { appearance Appearance { material Material { diffuseColor 0.01 0.01 0.012 } } geometry Box { size 0.4921259842519685 0.4921259842519685 0.05905511811023622 } } ] }
Transform { translation 1.0 -16.0 0.19685039370078738 children [ Shape { appearance Appearance { material Material { diffuseColor 0.65 0.52 0.22 } } geometry Box { size 0.25196850393700787 0.25196850393700787 0.7874015748031495 } } ] }
Transform { translation 0.0 -17.0 -3.75984251968504 children [ Shape { appearance Appearance { material Material { diffuseColor 0.01 0.01 0.012 } } geometry Box { size 0.4921259842519685 0.4921259842519685 0.05905511811023622 } } ] }
Transform { translation 0.0 -17.0 0.19685039370078738 children [ Shape { appearance Appearance { material Material { diffuseColor 0.65 0.52 0.22 } } geometry Box { size 0.25196850393700787 0.25196850393700787 0.7874015748031495 } } ] }
Transform { translation 1.0 -17.0 -3.75984251968504 children [ Shape { appearance Appearance { material Material { diffuseColor 0.01 0.01 0.012 } } geometry Box { size 0.4921259842519685 0.4921259842519685 0.05905511811023622 } } ] }
Transform { translation 1.0 -17.0 0.19685039370078738 children [ Shape { appearance Appearance { material Material { diffuseColor 0.65 0.52 0.22 } } geometry Box { size 0.25196850393700787 0.25196850393700787 0.7874015748031495 } } ] }
Transform { translation 0.0 -18.0 -3.75984251968504 children [ Shape { appearance Appearance { material Material { diffuseColor 0.01 0.01 0.012 } } geometry Box { size 0.4921259842519685 0.4921259842519685 0.05905511811023622 } } ] }
Transform { translation 0.0 -18.0 0.19685039370078738 children [ Shape { appearance Appearance { material Material { diffuseColor 0.65 0.52 0.22 } } geometry Box { size 0.25196850393700787 0.25196850393700787 0.7874015748031495 } } ] }
Transform { translation 1.0 -18.0 -3.75984251968504 children [ Shape { appearance Appearance { material Material { diffuseColor 0.01 0.01 0.012 } } geometry Box { size 0.4921259842519685 0.4921259842519685 0.05905511811023622 } } ] }
Transform { translation 1.0 -18.0 0.19685039370078738 children [ Shape { appearance Appearance { material Material { diffuseColor 0.65 0.52 0.22 } } geometry Box { size 0.25196850393700787 0.25196850393700787 0.7874015748031495 } } ] }
Transform { translation 0.0 -19.0 -3.75984251968504 children [ Shape { appearance Appearance { material Material { diffuseColor 0.01 0.01 0.012 } } geometry Box { size 0.4921259842519685 0.4921259842519685 0.05905511811023622 } } ] }
Transform { translation 0.0 -19.0 0.19685039370078738 children [ Shape { appearance Appearance { material Material { diffuseColor 0.65 0.52 0.22 } } geometry Box { size 0.25196850393700787 0.25196850393700787 0.7874015748031495 } } ] }
Transform { translation 1.0 -19.0 -3.75984251968504 children [ Shape { appearance Appearance { material Material { diffuseColor 0.01 0.01 0.012 } } geometry Box { size 0.4921259842519685 0.4921259842519685 0.05905511811023622 } } ] }
Transform { translation 1.0 -19.0 0.19685039370078738 children [ Shape { appearance Appearance { material Material { diffuseColor 0.65 0.52 0.22 } } geometry Box { size 0.25196850393700787 0.25196850393700787 0.7874015748031495 } } ] }
