#VRML V2.0 utf8
# Conceptual geometry, millimetres converted to KiCad VRML units.
Transform { translation 12.992125984251969 -4.330708661417323 1.574803149606299 rotation 1 0 0 1.570796 children [ Shape { appearance Appearance { material Material { diffuseColor 0.7 0.72 0.74 } } geometry Cylinder { radius 0.984251968503937 height 3.149606299212598 } } ] }
Transform { translation 30.31496062992126 -4.330708661417323 1.574803149606299 rotation 1 0 0 1.570796 children [ Shape { appearance Appearance { material Material { diffuseColor 0.7 0.72 0.74 } } geometry Cylinder { radius 0.984251968503937 height 3.149606299212598 } } ] }
Transform { translation 12.992125984251969 -17.716535433070867 1.574803149606299 rotation 1 0 0 1.570796 children [ Shape { appearance Appearance { material Material { diffuseColor 0.7 0.72 0.74 } } geometry Cylinder { radius 0.984251968503937 height 3.149606299212598 } } ] }
Transform { translation 30.31496062992126 -17.716535433070867 1.574803149606299 rotation 1 0 0 1.570796 children [ Shape { appearance Appearance { material Material { diffuseColor 0.7 0.72 0.74 } } geometry Cylinder { radius 0.984251968503937 height 3.149606299212598 } } ] }
