#VRML V2.0 utf8
# Conceptual geometry, millimetres converted to KiCad VRML units.
Transform { translation 0.5 -9.5 -3.8049212598425197 children [ Shape { appearance Appearance { material Material { diffuseColor 0.04 0.045 0.055 } } geometry Box { size 2.0078740157480315 20.0 6.3500000000000005 } } ] }
Transform { translation 0.0 0.0 0.452755905511811 children [ Shape { appearance Appearance { material Material { diffuseColor 0.73 0.57 0.22 } } geometry Box { size 0.25196850393700787 0.25196850393700787 0.905511811023622 } } ] }
Transform { translation 1.0 0.0 0.452755905511811 children [ Shape { appearance Appearance { material Material { diffuseColor 0.73 0.57 0.22 } } geometry Box { size 0.25196850393700787 0.25196850393700787 0.905511811023622 } } ] }
Transform { translation 0.0 -1.0 0.452755905511811 children [ Shape { appearance Appearance { material Material { diffuseColor 0.73 0.57 0.22 } } geometry Box { size 0.25196850393700787 0.25196850393700787 0.905511811023622 } } ] }
Transform { translation 1.0 -1.0 0.452755905511811 children [ Shape { appearance Appearance { material Material { diffuseColor 0.73 0.57 0.22 } } geometry Box { size 0.25196850393700787 0.25196850393700787 0.905511811023622 } } ] }
Transform { translation 0.0 -2.0 0.452755905511811 children [ Shape { appearance Appearance { material Material { diffuseColor 0.73 0.57 0.22 } } geometry Box { size 0.25196850393700787 0.25196850393700787 0.905511811023622 } } ] }
Transform { translation 1.0 -2.0 0.452755905511811 children [ Shape { appearance Appearance { material Material { diffuseColor 0.73 0.57 0.22 } } geometry Box { size 0.25196850393700787 0.25196850393700787 0.905511811023622 } } ] }
Transform { translation 0.0 -3.0 0.452755905511811 children [ Shape { appearance Appearance { material Material { diffuseColor 0.73 0.57 0.22 } } geometry Box { size 0.25196850393700787 0.25196850393700787 0.905511811023622 } } ] }
Transform { translation 1.0 -3.0 0.452755905511811 children [ Shape { appearance Appearance { material Material { diffuseColor 0.73 0.57 0.22 } } geometry Box { size 0.25196850393700787 0.25196850393700787 0.905511811023622 } } ] }
Transform { translation 0.0 -4.0 0.452755905511811 children [ Shape { appearance Appearance { material Material { diffuseColor 0.73 0.57 0.22 } } geometry Box { size 0.25196850393700787 0.25196850393700787 0.905511811023622 } } ] }
Transform { translation 1.0 -4.0 0.452755905511811 children [ Shape { appearance Appearance { material Material { diffuseColor 0.73 0.57 0.22 } } geometry Box { size 0.25196850393700787 0.25196850393700787 0.905511811023622 } } ] }
Transform { translation 0.0 -5.0 0.452755905511811 children [ Shape { appearance Appearance { material Material { diffuseColor 0.73 0.57 0.22 } } geometry Box { size 0.25196850393700787 0.25196850393700787 0.905511811023622 } } ] }
Transform { translation 1.0 -5.0 0.452755905511811 children [ Shape { appearance Appearance { material Material { diffuseColor 0.73 0.57 0.22 } } geometry Box { size 0.25196850393700787 0.25196850393700787 0.905511811023622 } } ] }
Transform { translation 0.0 -6.0 0.452755905511811 children [ Shape { appearance Appearance { material Material { diffuseColor 0.73 0.57 0.22 } } geometry Box { size 0.25196850393700787 0.25196850393700787 0.905511811023622 } } ] }
Transform { translation 1.0 -6.0 0.452755905511811 children [ Shape { appearance Appearance { material Material { diffuseColor 0.73 0.57 0.22 } } geometry Box { size 0.25196850393700787 0.25196850393700787 0.905511811023622 } } ] }
Transform { translation 0.0 -7.0 0.452755905511811 children [ Shape { appearance Appearance { material Material { diffuseColor 0.73 0.57 0.22 } } geometry Box { size 0.25196850393700787 0.25196850393700787 0.905511811023622 } } ] }
Transform { translation 1.0 -7.0 0.452755905511811 children [ Shape { appearance Appearance { material Material { diffuseColor 0.73 0.57 0.22 } } geometry Box { size 0.25196850393700787 0.25196850393700787 0.905511811023622 } } ] }
Transform { translation 0.0 -8.0 0.452755905511811 children [ Shape { appearance Appearance { material Material { diffuseColor 0.73 0.57 0.22 } } geometry Box { size 0.25196850393700787 0.25196850393700787 0.905511811023622 } } ] }
Transform { translation 1.0 -8.0 0.452755905511811 children [ Shape { appearance Appearance { material Material { diffuseColor 0.73 0.57 0.22 } } geometry Box { size 0.25196850393700787 0.25196850393700787 0.905511811023622 } } ] }
Transform { translation 0.0 -9.0 0.452755905511811 children [ Shape { appearance Appearance { material Material { diffuseColor 0.73 0.57 0.22 } } geometry Box { size 0.25196850393700787 0.25196850393700787 0.905511811023622 } } ] }
Transform { translation 1.0 -9.0 0.452755905511811 children [ Shape { appearance Appearance { material Material { diffuseColor 0.73 0.57 0.22 } } geometry Box { size 0.25196850393700787 0.25196850393700787 0.905511811023622 } } ] }
Transform { translation 0.0 -10.0 0.452755905511811 children [ Shape { appearance Appearance { material Material { diffuseColor 0.73 0.57 0.22 } } geometry Box { size 0.25196850393700787 0.25196850393700787 0.905511811023622 } } ] }
Transform { translation 1.0 -10.0 0.452755905511811 children [ Shape { appearance Appearance { material Material { diffuseColor 0.73 0.57 0.22 } } geometry Box { size 0.25196850393700787 0.25196850393700787 0.905511811023622 } } ] }
Transform { translation 0.0 -11.0 0.452755905511811 children [ Shape { appearance Appearance { material Material { diffuseColor 0.73 0.57 0.22 } } geometry Box { size 0.25196850393700787 0.25196850393700787 0.905511811023622 } } ] }
Transform { translation 1.0 -11.0 0.452755905511811 children [ Shape { appearance Appearance { material Material { diffuseColor 0.73 0.57 0.22 } } geometry Box { size 0.25196850393700787 0.25196850393700787 0.905511811023622 } } ] }
Transform { translation 0.0 -12.0 0.452755905511811 children [ Shape { appearance Appearance { material Material { diffuseColor 0.73 0.57 0.22 } } geometry Box { size 0.25196850393700787 0.25196850393700787 0.905511811023622 } } ] }
Transform { translation 1.0 -12.0 0.452755905511811 children [ Shape { appearance Appearance { material Material { diffuseColor 0.73 0.57 0.22 } } geometry Box { size 0.25196850393700787 0.25196850393700787 0.905511811023622 } } ] }
Transform { translation 0.0 -13.000000000000002 0.452755905511811 children [ Shape { appearance Appearance { material Material { diffuseColor 0.73 0.57 0.22 } } geometry Box { size 0.25196850393700787 0.25196850393700787 0.905511811023622 } } ] }
Transform { translation 1.0 -13.000000000000002 0.452755905511811 children [ Shape { appearance Appearance { material Material { diffuseColor 0.73 0.57 0.22 } } geometry Box { size 0.25196850393700787 0.25196850393700787 0.905511811023622 } } ] }
Transform { translation 0.0 -14.0 0.452755905511811 children [ Shape { appearance Appearance { material Material { diffuseColor 0.73 0.57 0.22 } } geometry Box { size 0.25196850393700787 0.25196850393700787 0.905511811023622 } } ] }
Transform { translation 1.0 -14.0 0.452755905511811 children [ Shape { appearance Appearance { material Material { diffuseColor 0.73 0.57 0.22 } } geometry Box { size 0.25196850393700787 0.25196850393700787 0.905511811023622 } } ] }
Transform { translation 0.0 -15.0 0.452755905511811 children [ Shape { appearance Appearance { material Material { diffuseColor 0.73 0.57 0.22 } } geometry Box { size 0.25196850393700787 0.25196850393700787 0.905511811023622 } } ] }
Transform { translation 1.0 -15.0 0.452755905511811 children [ Shape { appearance Appearance { material Material { diffuseColor 0.73 0.57 0.22 } } geometry Box { size 0.25196850393700787 0.25196850393700787 0.905511811023622 } } ] }
Transform { translation 0.0 -16.0 0.452755905511811 children [ Shape { appearance Appearance { material Material { diffuseColor 0.73 0.57 0.22 } } geometry Box { size 0.25196850393700787 0.25196850393700787 0.905511811023622 } } ] }
Transform { translation 1.0 -16.0 0.452755905511811 children [ Shape { appearance Appearance { material Material { diffuseColor 0.73 0.57 0.22 } } geometry Box { size 0.25196850393700787 0.25196850393700787 0.905511811023622 } } ] }
Transform { translation 0.0 -17.0 0.452755905511811 children [ Shape { appearance Appearance { material Material { diffuseColor 0.73 0.57 0.22 } } geometry Box { size 0.25196850393700787 0.25196850393700787 0.905511811023622 } } ] }
Transform { translation 1.0 -17.0 0.452755905511811 children [ Shape { appearance Appearance { material Material { diffuseColor 0.73 0.57 0.22 } } geometry Box { size 0.25196850393700787 0.25196850393700787 0.905511811023622 } } ] }
Transform { translation 0.0 -18.0 0.452755905511811 children [ Shape { appearance Appearance { material Material { diffuseColor 0.73 0.57 0.22 } } geometry Box { size 0.25196850393700787 0.25196850393700787 0.905511811023622 } } ] }
Transform { translation 1.0 -18.0 0.452755905511811 children [ Shape { appearance Appearance { material Material { diffuseColor 0.73 0.57 0.22 } } geometry Box { size 0.25196850393700787 0.25196850393700787 0.905511811023622 } } ] }
Transform { translation 0.0 -19.0 0.452755905511811 children [ Shape { appearance Appearance { material Material { diffuseColor 0.73 0.57 0.22 } } geometry Box { size 0.25196850393700787 0.25196850393700787 0.905511811023622 } } ] }
Transform { translation 1.0 -19.0 0.452755905511811 children [ Shape { appearance Appearance { material Material { diffuseColor 0.73 0.57 0.22 } } geometry Box { size 0.25196850393700787 0.25196850393700787 0.905511811023622 } } ] }
